<?xml version="1.0" standalone="no"?>
<!DOCTYPE svg PUBLIC "-//W3C//DTD SVG 20010904//EN"
 "http://www.w3.org/TR/2001/REC-SVG-20010904/DTD/svg10.dtd">
<svg version="1.0" xmlns="http://www.w3.org/2000/svg"
 width="200.000000pt" height="200.000000pt" viewBox="0 0 200.000000 200.000000"
 preserveAspectRatio="xMidYMid meet">
<metadata>
Created by potrace 1.14, written by Peter Selinger 2001-2017
</metadata>
<g transform="translate(0.000000,200.000000) scale(0.100000,-0.100000)"
fill="#000000" stroke="none">
<path d="M376 1735 c-11 -8 -15 -15 -9 -15 6 0 16 7 23 15 16 19 11 19 -14 0z"/>
<path d="M312 1728 c-12 -16 -21 -79 -10 -72 4 3 8 15 8 27 0 26 10 42 30 50
13 4 12 6 -1 6 -9 1 -21 -5 -27 -11z"/>
<path d="M625 1720 c-3 -11 -11 -20 -16 -20 -6 0 -8 -4 -4 -9 3 -5 -4 -33 -15
-62 -12 -28 -19 -59 -18 -68 2 -9 14 13 27 49 13 36 31 71 39 78 10 8 12 12 4
12 -10 0 -10 5 -2 20 7 12 7 20 1 20 -5 0 -13 -9 -16 -20z"/>
<path d="M660 1729 c0 -5 5 -7 10 -4 6 3 10 8 10 11 0 2 -4 4 -10 4 -5 0 -10
-5 -10 -11z"/>
<path d="M456 1715 c-3 -9 -6 -22 -5 -28 0 -7 5 -1 10 12 5 13 8 26 5 28 -2 2
-6 -3 -10 -12z"/>
<path d="M1400 1704 c0 -9 -5 -12 -12 -8 -7 4 -8 3 -4 -4 4 -6 0 -27 -8 -46
-12 -30 -12 -35 0 -40 9 -3 14 1 14 14 0 24 21 70 31 70 5 0 6 7 3 15 -8 20
-24 19 -24 -1z"/>
<path d="M1472 1689 c-8 -12 -9 -18 -3 -14 7 4 11 -7 11 -29 0 -29 -4 -36 -20
-36 -23 0 -26 10 -8 28 6 6 9 14 6 18 -9 8 -30 -35 -23 -46 9 -14 42 -12 52 3
8 13 11 97 3 97 -3 0 -11 -9 -18 -21z"/>
<path d="M677 1683 c-8 -10 -17 -31 -19 -48 -2 -23 1 -30 17 -33 15 -2 17 -1
6 6 -17 12 -3 60 22 76 24 16 31 1 14 -33 -10 -21 -12 -32 -4 -40 14 -14 34
-14 42 -1 4 6 -1 7 -11 3 -17 -6 -17 5 1 62 5 17 1 21 -23 23 -17 1 -35 -5
-45 -15z"/>
<path d="M785 1664 c-18 -43 -14 -64 12 -64 14 0 15 2 4 9 -11 7 -11 15 -1 45
16 50 5 58 -15 10z"/>
<path d="M842 1675 c0 -16 2 -22 5 -12 2 9 2 23 0 30 -3 6 -5 -1 -5 -18z"/>
<path d="M886 1678 c-18 -25 -21 -64 -6 -73 6 -4 10 7 10 24 0 18 9 40 20 51
15 15 16 20 6 20 -8 0 -22 -10 -30 -22z"/>
<path d="M941 1673 c-1 -19 -10 -42 -21 -53 -11 -11 -16 -20 -12 -20 11 0 37
30 44 50 3 8 2 24 -3 35 -6 16 -8 14 -8 -12z"/>
<path d="M977 1663 c-16 -42 -13 -63 12 -63 13 0 13 2 2 9 -12 8 -11 15 2 50
9 23 13 41 8 41 -5 0 -16 -17 -24 -37z"/>
<path d="M1033 1655 c-12 -25 -18 -43 -13 -40 6 4 10 1 10 -4 0 -6 4 -11 10
-11 5 0 7 6 4 13 -2 7 2 30 11 50 22 53 4 46 -22 -8z"/>
<path d="M1101 1668 c-6 -17 -18 -39 -26 -48 -13 -14 -12 -16 3 -17 12 -1 23
13 35 40 19 48 21 57 8 57 -5 0 -14 -14 -20 -32z"/>
<path d="M1145 1690 c4 -6 11 -8 16 -5 14 9 11 15 -7 15 -8 0 -12 -5 -9 -10z"/>
<path d="M1184 1676 c-23 -36 -15 -70 16 -73 14 -2 19 0 10 4 -23 9 -31 27
-17 38 6 6 12 16 12 24 0 8 6 16 14 19 10 3 12 0 8 -12 -4 -10 -3 -15 3 -11 6
3 10 13 10 21 0 23 -38 16 -56 -10z"/>
<path d="M1277 1682 c-10 -10 -17 -22 -17 -27 0 -5 -8 -17 -17 -28 -10 -11
-13 -17 -6 -14 6 4 14 3 18 -3 3 -5 14 -10 23 -10 14 0 14 2 3 9 -17 11 -3 59
22 75 24 16 31 1 14 -33 -16 -31 -7 -51 23 -51 12 0 12 2 1 9 -8 5 -11 17 -7
30 3 11 8 29 11 39 7 25 -46 28 -68 4z"/>
<path d="M378 1677 c-24 -24 -88 -69 -88 -63 0 3 -8 -2 -18 -11 -57 -54 -77
-59 -52 -12 7 12 7 19 1 19 -6 0 -13 -17 -17 -37 -4 -21 -14 -43 -23 -50 -9
-7 -11 -13 -5 -13 6 0 17 7 24 15 7 8 16 12 21 9 5 -3 9 1 9 8 0 7 35 38 76
68 72 52 103 80 91 80 -3 0 -12 -6 -19 -13z"/>
<path d="M243 1665 c-3 -9 -3 -18 -1 -21 3 -3 8 4 11 16 6 23 -1 27 -10 5z"/>
<path d="M450 1660 l-25 -21 28 12 c15 7 27 16 27 21 0 11 -1 10 -30 -12z"/>
<path d="M246 1615 c-3 -8 -1 -15 4 -15 6 0 10 7 10 15 0 8 -2 15 -4 15 -2 0
-6 -7 -10 -15z"/>
<path d="M340 1600 c0 -5 7 -7 15 -4 8 4 15 8 15 10 0 2 -7 4 -15 4 -8 0 -15
-4 -15 -10z"/>
<path d="M293 1566 c-4 -7 -15 -16 -23 -19 -12 -4 -12 -6 2 -6 10 -1 22 8 28
19 12 22 6 28 -7 6z"/>
</g>
</svg>
